<svg xmlns="http://www.w3.org/2000/svg" viewBox="0 0 1200 380">
  <defs>
    <linearGradient id="grad" x1="0%" y1="0%" x2="100%" y2="100%">
      <stop offset="0%" stop-color="#1e3a5f"/>
      <stop offset="100%" stop-color="#d4537e"/>
    </linearGradient>
    <filter id="shadow" x="-20%" y="-20%" width="140%" height="140%">
      <feDropShadow dx="0" dy="12" stdDeviation="14" flood-color="#000" flood-opacity="0.18"/>
    </filter>
  </defs>
  <rect width="1200" height="380" rx="32" ry="32" fill="url(#grad)" filter="url(#shadow)"/>
  <rect x="36" y="36" width="1128" height="308" rx="24" ry="24" fill="rgba(255,255,255,0.08)"/>
  <text x="60" y="120" fill="#fff" font-family="DM Sans, sans-serif" font-size="54" font-weight="700">Volunteer Signup</text>
  <text x="60" y="190" fill="#fff" font-family="DM Sans, sans-serif" font-size="28" opacity="0.9">Join the Ratha Yatra 2026 volunteer team</text>
  <text x="60" y="245" fill="#fff" font-family="DM Sans, sans-serif" font-size="22" opacity="0.8">Step forward and make our festival seamless, vibrant, and spiritually enriching.</text>
  <g transform="translate(820,92)">
    <circle cx="160" cy="100" r="84" fill="#fff" opacity="0.18"/>
    <circle cx="160" cy="100" r="64" fill="#fff" opacity="0.22"/>
    <path d="M96 98c0-36 30-66 66-66s66 30 66 66-30 66-66 66-66-30-66-66Z" fill="#fff" opacity="0.2"/>
    <path d="M160 58c-22 0-40 18-40 40s18 40 40 40 40-18 40-40-18-40-40-40Zm0 74c-18 0-34-14-34-34s16-34 34-34 34 14 34 34-16 34-34 34Z" fill="#fff"/>
    <path d="M162 88a10 10 0 0 0-10 10v40a10 10 0 0 0 20 0V98a10 10 0 0 0-10-10ZM160 138a10 10 0 1 0 0 20 10 10 0 0 0 0-20Z" fill="#fff"/>
  </g>
</svg>
